<svg width="309" height="274" viewBox="0 0 309 274" fill="none" xmlns="http://www.w3.org/2000/svg">
<g filter="url(#filter0_d_2_66)">
<path d="M194.74 117.1V131.16C193.32 129.29 191.95 127.38 190.57 125.51C189.33 123.85 187.74 122.4 185.58 122.22C182.28 121.93 178.22 122.24 175.92 124.95C174.99 126.03 174.25 127.61 174.25 129.07V140.54C173.85 147.92 166.72 149.05 166.72 149.05H157.29C153.12 149.05 149.73 152.43 149.73 156.61V161.12L78.72 72.97H98.62C103.5 72.97 107.45 69.02 107.45 64.14V52.39C107.45 52.39 108.4 48.51 112.82 48.27H110.53H110.54L123.85 48.26C125.49 48.26 127.01 47.77 128.29 46.92L179.02 109.14H186.78C191.17 109.14 194.74 112.71 194.74 117.1Z" fill="#00B0B6"/>
<path d="M307.27 73.13V146.79H234.25C229.41 146.79 225.49 150.71 225.49 155.55V167.19C225.49 167.19 224.3 172.09 218.53 171.97H211.35C206.91 171.97 203.32 175.56 203.32 179.99C203.32 184.42 206.91 188.02 211.35 188.02H218.53C224.31 187.9 225.49 192.79 225.49 192.79V251.2L164.72 177.1C164.72 177.1 162.63 174.88 157.77 174.48H157.3C153.12 174.48 149.73 171.09 149.73 166.91V156.61C149.73 152.43 153.12 149.05 157.29 149.05H166.72C166.72 149.05 173.85 147.92 174.25 140.54V129.07C174.25 127.61 174.99 126.03 175.92 124.95C178.22 122.24 182.28 121.93 185.58 122.22C187.74 122.4 189.33 123.85 190.57 125.51C192.43 128.03 194.28 130.64 196.25 133.11C197.74 134.97 199.26 136.93 201.05 138.51C202.34 139.64 204.12 139.85 205.77 139.84C207.66 139.83 209.53 139.7 211.42 139.7H219.47C221.23 139.7 222.81 138.99 223.97 137.83C225.12 136.68 225.83 135.09 225.83 133.33V73.13H226.31C226.31 73.13 230.6 73.34 231.41 77.63C231.43 77.81 231.45 77.99 231.48 78.16C231.49 78.28 231.51 78.38 231.52 78.5V78.45C232.31 82.85 236.15 86.2 240.78 86.2H242.84C247.46 86.2 251.3 82.86 252.09 78.46V78.5C252.1 78.4 252.12 78.32 252.13 78.23C252.16 78.03 252.19 77.82 252.21 77.61C253.03 73.34 257.3 73.13 257.3 73.13H307.27Z" fill="#F58120"/>
<path d="M110.24 213.18V256.66C110.24 261.47 106.35 265.36 101.55 265.36H9.46C4.24 265.36 0 261.12 0 255.9V204.49H20.5C20.5 204.49 25.51 204.74 26.46 209.75C26.48 209.96 26.51 210.16 26.54 210.37C26.56 210.5 26.58 210.62 26.59 210.76V210.7C27.51 215.85 32 219.76 37.41 219.76H39.81C45.22 219.76 49.7 215.86 50.63 210.71V210.76C50.63 210.65 50.66 210.55 50.67 210.45C50.7 210.21 50.74 209.97 50.76 209.73C51.72 204.73 56.72 204.49 56.72 204.49H101.55C106.35 204.49 110.24 208.38 110.24 213.18Z" fill="#016BA8"/>
<path d="M93.71 176.1C93.71 179.64 90.84 182.52 87.3 182.52H81.56C76.95 182.42 76.01 186.33 76.01 186.33V204.49H56.72C56.72 204.49 51.72 204.73 50.76 209.73C50.74 209.97 50.7 210.21 50.67 210.45C50.66 210.55 50.63 210.65 50.63 210.76V210.71C49.7 215.86 45.22 219.76 39.81 219.76H37.41C32 219.76 27.51 215.85 26.59 210.7V210.76C26.58 210.62 26.56 210.5 26.54 210.37C26.51 210.16 26.48 209.96 26.46 209.75C25.51 204.74 20.5 204.49 20.5 204.49H0V137.53H20.5C20.5 137.53 25.51 137.77 26.46 142.79C26.48 142.99 26.51 143.2 26.54 143.4C26.56 143.54 26.58 143.66 26.59 143.8V143.74C27.51 148.89 32 152.8 37.41 152.8H39.81C45.22 152.8 49.7 148.89 50.63 143.75V143.8C50.63 143.69 50.66 143.59 50.67 143.48C50.7 143.24 50.74 143.01 50.76 142.76C51.72 137.77 56.72 137.53 56.72 137.53H76.01V165.88C76.01 165.88 76.95 169.79 81.57 169.69H87.3C90.84 169.69 93.71 172.56 93.71 176.1Z" fill="#F05223"/>
<path d="M298.88 0H234.23C229.59 0 225.83 3.76 225.83 8.4V73.14H226.31C226.31 73.14 230.6 73.35 231.41 77.64C231.43 77.82 231.45 77.99 231.48 78.17C231.49 78.28 231.52 78.39 231.52 78.51V78.46C232.3 82.87 236.15 86.21 240.78 86.21H242.84C247.47 86.21 251.31 82.87 252.09 78.47V78.51C252.09 78.41 252.12 78.33 252.13 78.24C252.16 78.04 252.19 77.83 252.21 77.62C253.03 73.35 257.31 73.14 257.31 73.14H307.28V8.4C307.28 3.76 303.52 0 298.88 0Z" fill="#FAA719"/>
<path d="M24.06 184.35C29.0306 184.35 33.06 180.321 33.06 175.35C33.06 170.379 29.0306 166.35 24.06 166.35C19.0894 166.35 15.06 170.379 15.06 175.35C15.06 180.321 19.0894 184.35 24.06 184.35Z" fill="#E13826"/>
<path d="M25.04 246.52C30.0106 246.52 34.04 242.491 34.04 237.52C34.04 232.549 30.0106 228.52 25.04 228.52C20.0694 228.52 16.04 232.549 16.04 237.52C16.04 242.491 20.0694 246.52 25.04 246.52Z" fill="#0B4C81"/>
<path d="M56.72 246.52C61.6906 246.52 65.72 242.491 65.72 237.52C65.72 232.549 61.6906 228.52 56.72 228.52C51.7494 228.52 47.72 232.549 47.72 237.52C47.72 242.491 51.7494 246.52 56.72 246.52Z" fill="#0B4C81"/>
<path d="M88.39 246.52C93.3606 246.52 97.39 242.491 97.39 237.52C97.39 232.549 93.3606 228.52 88.39 228.52C83.4194 228.52 79.39 232.549 79.39 237.52C79.39 242.491 83.4194 246.52 88.39 246.52Z" fill="#0B4C81"/>
<path d="M282.95 46.99C287.921 46.99 291.95 42.9606 291.95 37.99C291.95 33.0194 287.921 28.99 282.95 28.99C277.979 28.99 273.95 33.0194 273.95 37.99C273.95 42.9606 277.979 46.99 282.95 46.99Z" fill="#F37121"/>
<path d="M250.16 46.99C255.131 46.99 259.16 42.9606 259.16 37.99C259.16 33.0194 255.131 28.99 250.16 28.99C245.189 28.99 241.16 33.0194 241.16 37.99C241.16 42.9606 245.189 46.99 250.16 46.99Z" fill="#F37121"/>
<path d="M54.53 184.35C59.5006 184.35 63.53 180.321 63.53 175.35C63.53 170.379 59.5006 166.35 54.53 166.35C49.5594 166.35 45.53 170.379 45.53 175.35C45.53 180.321 49.5594 184.35 54.53 184.35Z" fill="#E13826"/>
<path d="M93.71 109.14C93.71 112.68 90.84 115.55 87.3 115.55H81.56C76.95 115.46 76.01 119.37 76.01 119.37V137.53H56.72C56.72 137.53 51.72 137.77 50.76 142.76C50.74 143.01 50.7 143.24 50.67 143.48C50.66 143.59 50.63 143.69 50.63 143.8V143.75C49.7 148.89 45.22 152.8 39.81 152.8H37.41C32 152.8 27.51 148.89 26.59 143.74V143.8C26.58 143.66 26.56 143.54 26.54 143.4C26.51 143.2 26.48 142.99 26.46 142.79C25.51 137.77 20.5 137.53 20.5 137.53H0V72.97H20.5C20.5 72.97 25.51 73.22 26.46 78.23C26.48 78.44 26.51 78.65 26.54 78.85C26.56 78.98 26.58 79.11 26.59 79.25V79.19C27.51 84.33 32 88.25 37.41 88.25H39.81C45.22 88.25 49.7 84.34 50.63 79.2V79.25C50.63 79.13 50.66 79.04 50.67 78.93C50.7 78.69 50.74 78.45 50.76 78.21C51.72 73.22 56.72 72.97 56.72 72.97H76.01V98.92C76.01 98.92 76.95 102.83 81.57 102.73H87.3C90.84 102.73 93.71 105.6 93.71 109.14Z" fill="#F57E20"/>
<path d="M112.82 48.27C112.96 48.26 113.11 48.26 113.26 48.26C113.36 48.26 113.47 48.27 113.57 48.27H112.82Z" fill="#009092"/>
<path d="M113.57 48.27H112.82C112.96 48.26 113.11 48.26 113.26 48.26C113.36 48.26 113.47 48.27 113.57 48.27Z" fill="#009092"/>
<path d="M123.85 31.85H113.57C108.5 32.02 107.46 27.75 107.45 27.73V13.16C107.45 6.07 101.7 0.32 94.6 0.32H8.12C3.64 0.32 0 3.95 0 8.44V28.25C0 28.25 1.03 32.5 6.05 32.37H17.79C21.62 32.37 24.72 35.47 24.72 39.3C24.72 43.13 21.62 46.24 17.79 46.24H6.01C1.02 46.13 0 50.36 0 50.36V72.97H98.62C103.5 72.97 107.45 69.02 107.45 64.14V52.39C107.45 52.39 108.5 48.1 113.57 48.27H107.45H123.85C128.3 48.27 131.92 44.66 131.92 40.2V39.92C131.92 35.47 128.31 31.85 123.85 31.85Z" fill="#009092"/>
<path d="M50.63 72.97H20.51C20.51 72.97 25.52 73.22 26.47 78.23C26.49 78.44 26.52 78.64 26.55 78.85C26.57 78.98 26.59 79.11 26.6 79.25V79.19C27.52 84.34 32.01 88.25 37.42 88.25H39.82C45.23 88.25 49.71 84.34 50.63 79.2V79.25C50.63 79.14 50.66 79.04 50.67 78.93C50.71 78.69 50.74 78.45 50.76 78.21C51.72 73.22 56.72 72.97 56.72 72.97H50.63Z" fill="#009092"/>
<path d="M24.06 117.39C29.0306 117.39 33.06 113.361 33.06 108.39C33.06 103.419 29.0306 99.39 24.06 99.39C19.0894 99.39 15.06 103.419 15.06 108.39C15.06 113.361 19.0894 117.39 24.06 117.39Z" fill="#F15822"/>
<path d="M54.53 117.39C59.5006 117.39 63.53 113.361 63.53 108.39C63.53 103.419 59.5006 99.39 54.53 99.39C49.5594 99.39 45.53 103.419 45.53 108.39C45.53 113.361 49.5594 117.39 54.53 117.39Z" fill="#F15822"/>
<path d="M48.29 48.27C53.2606 48.27 57.29 44.2406 57.29 39.27C57.29 34.2994 53.2606 30.27 48.29 30.27C43.3194 30.27 39.29 34.2994 39.29 39.27C39.29 44.2406 43.3194 48.27 48.29 48.27Z" fill="#017877"/>
<path d="M78.76 48.27C83.7306 48.27 87.76 44.2406 87.76 39.27C87.76 34.2994 83.7306 30.27 78.76 30.27C73.7894 30.27 69.76 34.2994 69.76 39.27C69.76 44.2406 73.7894 48.27 78.76 48.27Z" fill="#017877"/>
<path d="M125.11 95.2C130.081 95.2 134.11 91.1706 134.11 86.2C134.11 81.2294 130.081 77.2 125.11 77.2C120.139 77.2 116.11 81.2294 116.11 86.2C116.11 91.1706 120.139 95.2 125.11 95.2Z" fill="#008989"/>
<path d="M144.33 120.48C149.301 120.48 153.33 116.451 153.33 111.48C153.33 106.509 149.301 102.48 144.33 102.48C139.359 102.48 135.33 106.509 135.33 111.48C135.33 116.451 139.359 120.48 144.33 120.48Z" fill="#008989"/>
<path d="M189.75 168.57C194.721 168.57 198.75 164.541 198.75 159.57C198.75 154.599 194.721 150.57 189.75 150.57C184.779 150.57 180.75 154.599 180.75 159.57C180.75 164.541 184.779 168.57 189.75 168.57Z" fill="#F15822"/>
<path d="M282.53 91.5H253.22C249.746 91.5 246.93 94.3161 246.93 97.79C246.93 101.264 249.746 104.08 253.22 104.08H282.53C286.004 104.08 288.82 101.264 288.82 97.79C288.82 94.3161 286.004 91.5 282.53 91.5Z" fill="#DF6026"/>
<path d="M282.53 114.19H253.22C249.746 114.19 246.93 117.006 246.93 120.48C246.93 123.954 249.746 126.77 253.22 126.77H282.53C286.004 126.77 288.82 123.954 288.82 120.48C288.82 117.006 286.004 114.19 282.53 114.19Z" fill="#DF6026"/>
<path d="M234.25 146.79C229.41 146.79 225.49 150.71 225.49 155.55V167.19C225.49 167.19 224.3 172.09 218.52 171.96H211.34C206.91 171.96 203.31 175.55 203.31 179.99C203.31 184.43 206.9 188.02 211.34 188.02H218.53C224.3 187.9 225.49 192.79 225.49 192.79V256.59C225.49 261.43 229.41 265.35 234.25 265.35H298.5C303.34 265.35 307.26 261.43 307.26 256.59V146.78H234.24L234.25 146.79Z" fill="#00ABBA"/>
<path d="M282.53 170.41H253.22C249.746 170.41 246.93 173.226 246.93 176.7C246.93 180.174 249.746 182.99 253.22 182.99H282.53C286.004 182.99 288.82 180.174 288.82 176.7C288.82 173.226 286.004 170.41 282.53 170.41Z" fill="#0792A1"/>
<path d="M282.53 193.09H253.22C249.746 193.09 246.93 195.906 246.93 199.38C246.93 202.854 249.746 205.67 253.22 205.67H282.53C286.004 205.67 288.82 202.854 288.82 199.38C288.82 195.906 286.004 193.09 282.53 193.09Z" fill="#0792A1"/>
<path d="M269.22 215.77H252.02C249.209 215.77 246.93 218.049 246.93 220.86V223.26C246.93 226.071 249.209 228.35 252.02 228.35H269.22C272.031 228.35 274.31 226.071 274.31 223.26V220.86C274.31 218.049 272.031 215.77 269.22 215.77Z" fill="#0792A1"/>
</g>
<defs>
<filter id="filter0_d_2_66" x="-4" y="0" width="315.28" height="273.36" filterUnits="userSpaceOnUse" color-interpolation-filters="sRGB">
<feFlood flood-opacity="0" result="BackgroundImageFix"/>
<feColorMatrix in="SourceAlpha" type="matrix" values="0 0 0 0 0 0 0 0 0 0 0 0 0 0 0 0 0 0 127 0" result="hardAlpha"/>
<feOffset dy="4"/>
<feGaussianBlur stdDeviation="2"/>
<feComposite in2="hardAlpha" operator="out"/>
<feColorMatrix type="matrix" values="0 0 0 0 0 0 0 0 0 0 0 0 0 0 0 0 0 0 0.25 0"/>
<feBlend mode="normal" in2="BackgroundImageFix" result="effect1_dropShadow_2_66"/>
<feBlend mode="normal" in="SourceGraphic" in2="effect1_dropShadow_2_66" result="shape"/>
</filter>
</defs>
</svg>
